<svg version="1.1" xmlns="http://www.w3.org/2000/svg" viewBox="0 0 495.6824025630951 369.13924032926553" width="495.6824025630951" height="369.13924032926553">
  <!-- svg-source:excalidraw -->
  
  <defs>
    <style class="style-fonts">
      
    </style>
    
  </defs>
  <rect x="0" y="0" width="495.6824025630951" height="369.13924032926553" fill="#ffffff"></rect><g stroke-linecap="round"><g transform="translate(67.74465560466052 11.182226958619424) rotate(0 1.199981689453125 146.40000915527344)"><path d="M-0.41 -0.09 C0.21 48.38, 2.21 243.01, 2.66 291.76 M1.58 -1.18 C2.16 47.32, 1.87 243.63, 1.84 292.76" stroke="#1e1e1e" stroke-width="2" fill="none"></path></g></g><mask></mask><g stroke-linecap="round"><g transform="translate(11.744594569504272 357.5822208551038) rotate(0 236.4000244140625 0)"><path d="M0.64 -0.69 C79.73 -0.86, 395.2 -0.82, 473.94 -0.83 M-0.48 1.56 C78.6 1.51, 394.77 0.51, 473.59 0.28" stroke="#1e1e1e" stroke-width="2" fill="none"></path></g></g><mask></mask><g stroke-linecap="round"><g transform="translate(69.34457015544177 303.1822269586194) rotate(0 -24.79998779296875 27.199996948242188)"><path d="M0.17 0.45 C-8.07 9.42, -41 44.92, -49.43 53.79 M-1.2 -0.36 C-9.58 8.77, -42.5 45.84, -50.29 55.01" stroke="#1e1e1e" stroke-width="2" fill="none"></path></g></g><mask></mask><g stroke-linecap="round"><g transform="translate(69.34457015544177 301.5822513726819) rotate(0 20 27.999984741210938)"><path d="M0.08 -1.07 C7.05 8.39, 34.49 47.24, 41.13 56.58 M-1.33 0.99 C5.63 10.1, 34.03 45.64, 40.78 54.76" stroke="#1e1e1e" stroke-width="2" fill="none"></path></g></g><mask></mask><g stroke-linecap="round"><g transform="translate(69.34457015544177 304.78223306213505) rotate(0 -0.399993896484375 26)"><path d="M1.2 0.84 C0.87 9.57, -1.47 42.87, -1.7 51.55 M0.37 0.23 C0.4 9.21, 0.7 44.37, 0.53 52.86" stroke="#1e1e1e" stroke-width="2" fill="none"></path></g></g><mask></mask><g stroke-linecap="round"><g transform="translate(10.944606776535522 23.182242217408486) rotate(0 169.5999755859375 -2.4000015258789062)"><path d="M-0.94 0.49 C55.3 -0.55, 281.68 -4.12, 338.5 -5.12 M0.76 -0.3 C57.31 -0.66, 284.36 -3.04, 340.84 -3.75" stroke="#1e1e1e" stroke-width="2" fill="none"></path></g></g><mask></mask><g stroke-linecap="round"><g transform="translate(69.34457015544177 72.78223306213505) rotate(0 23.20001220703125 -25.59998321533203)"><path d="M-0.71 -1.03 C6.81 -9.61, 38.58 -42.06, 46.24 -50.34 M1.12 1.04 C8.36 -7.36, 37.47 -43.04, 45.21 -52.02" stroke="#1e1e1e" stroke-width="2" fill="none"></path></g></g><mask></mask><g stroke-linecap="round"><g transform="translate(269.3445701554418 19.982230010377236) rotate(0 1.20001220703125 22.400001525878906)"><path d="M-0.17 -0.35 C0.31 7.16, 2.11 37.54, 2.55 45.01 M0.74 0.66 C1.19 8.01, 1.97 36.78, 2.19 44.15" stroke="#1e1e1e" stroke-width="2" fill="none"></path></g></g><mask></mask><g stroke-linecap="round" transform="translate(239.74459456950427 66.38223916565067) rotate(0 31.600006103515625 31.599990844726562)"><path d="M38.96 0.53 C45.43 1.64, 53.62 7.68, 57.78 13.21 C61.95 18.75, 64.46 26.86, 63.94 33.76 C63.42 40.66, 59.47 49.76, 54.65 54.61 C49.83 59.47, 41.9 62.6, 35.03 62.91 C28.16 63.22, 19.2 60.37, 13.43 56.45 C7.66 52.53, 2.06 45.68, 0.41 39.37 C-1.24 33.07, 0.61 24.56, 3.53 18.61 C6.44 12.67, 11.52 6.41, 17.92 3.7 C24.31 0.98, 37.55 2.4, 41.92 2.31 C46.29 2.22, 44.31 2.84, 44.14 3.15 M38.74 2.41 C45.02 4.15, 53.85 9.35, 57.81 14.72 C61.77 20.09, 63.06 27.97, 62.5 34.62 C61.94 41.27, 59.33 49.73, 54.45 54.63 C49.58 59.53, 40.34 63.45, 33.23 64.04 C26.12 64.62, 17.37 62.29, 11.78 58.14 C6.18 53.99, 0.95 46.02, -0.35 39.15 C-1.65 32.29, 1.04 22.79, 3.99 16.94 C6.95 11.08, 11.58 6.7, 17.39 4.04 C23.19 1.37, 34.91 1.49, 38.84 0.95 C42.77 0.42, 40.92 0.08, 40.97 0.82" stroke="#1e1e1e" stroke-width="2" fill="none"></path></g></svg>